<?xml version="1.0" standalone="no"?>
<!DOCTYPE svg PUBLIC "-//W3C//DTD SVG 20010904//EN"
 "http://www.w3.org/TR/2001/REC-SVG-20010904/DTD/svg10.dtd">
<svg version="1.0" xmlns="http://www.w3.org/2000/svg"
 width="700.000000pt" height="700.000000pt" viewBox="0 0 700.000000 700.000000"
 preserveAspectRatio="xMidYMid meet">
<metadata>
Created by potrace 1.14, written by Peter Selinger 2001-2017
</metadata>
<g transform="translate(0.000000,700.000000) scale(0.100000,-0.100000)"
fill="#000000" stroke="none">
<path d="M3147 6564 c-1 -1 -72 -5 -157 -8 -85 -4 -171 -8 -190 -11 -19 -2
-75 -7 -125 -10 -49 -4 -103 -8 -120 -10 -16 -2 -61 -6 -100 -10 -38 -3 -81
-8 -95 -10 -14 -2 -50 -7 -80 -10 -147 -17 -521 -76 -610 -96 -25 -6 -56 -13
-70 -15 -226 -41 -541 -123 -875 -229 -110 -35 -229 -71 -265 -80 -36 -9 -68
-19 -72 -21 -3 -2 11 -41 32 -87 44 -95 76 -166 132 -292 22 -49 46 -96 53
-103 15 -17 87 1 365 88 396 125 651 195 850 234 14 2 50 10 80 16 74 14 115
21 260 44 52 9 113 18 135 21 22 2 58 7 80 10 22 3 72 9 110 14 133 18 256 29
560 48 234 14 850 7 1065 -12 25 -3 74 -7 110 -9 85 -6 272 -27 370 -41 19 -3
53 -8 75 -11 56 -7 85 -12 120 -18 17 -3 71 -12 120 -20 92 -16 101 -18 195
-37 183 -36 526 -129 805 -219 149 -47 345 -105 392 -115 l32 -6 121 240 c66
133 120 245 120 250 0 5 -17 12 -37 15 -21 4 -49 11 -63 15 -14 5 -63 20 -110
34 -47 15 -155 48 -240 75 -191 61 -526 147 -685 176 -16 3 -43 8 -60 11 -16
3 -37 8 -45 10 -8 2 -28 7 -45 10 -16 2 -41 7 -55 10 -14 3 -95 17 -180 31
-191 31 -193 31 -255 39 -27 4 -63 9 -80 11 -16 2 -52 6 -80 9 -27 4 -61 8
-75 10 -14 2 -58 7 -99 10 -41 4 -82 8 -90 10 -9 1 -61 6 -116 9 -55 4 -116 9
-135 11 -105 13 -961 30 -973 19z"/>
<path d="M2740 5856 c-3 -2 -39 -7 -80 -10 -93 -8 -133 -13 -290 -36 -94 -13
-125 -18 -275 -46 -59 -10 -262 -53 -350 -74 -49 -11 -151 -41 -225 -67 -74
-25 -272 -93 -440 -150 -168 -58 -318 -109 -335 -114 -60 -18 -61 -21 -22 -90
46 -83 80 -129 157 -212 125 -135 334 -293 495 -374 78 -40 174 -75 184 -68 4
2 18 36 31 74 31 91 74 148 145 196 57 38 158 78 224 90 19 3 37 7 40 9 3 2
30 7 60 11 30 4 63 9 75 11 36 8 396 17 396 10 0 -3 9 -48 20 -99 10 -50 21
-103 24 -117 4 -20 41 -202 61 -295 2 -11 11 -54 19 -95 9 -41 17 -84 20 -95
8 -38 78 -380 82 -400 2 -11 8 -42 14 -70 6 -27 12 -59 14 -70 3 -17 28 -132
42 -200 2 -11 6 -29 8 -40 8 -44 90 -440 122 -594 19 -90 36 -176 39 -192 3
-15 25 -126 50 -246 40 -193 110 -534 121 -588 2 -11 18 -87 35 -170 17 -82
32 -157 34 -165 2 -8 22 -107 45 -220 23 -113 44 -214 46 -225 2 -11 8 -40 14
-65 5 -25 12 -57 15 -72 3 -16 7 -38 10 -50 2 -13 27 -131 54 -263 44 -215 50
-237 60 -211 10 26 59 219 75 301 4 17 8 39 11 50 13 62 145 724 149 749 3 17
28 146 56 286 28 140 53 264 54 275 2 11 25 124 51 250 26 127 49 241 52 255
2 14 9 45 14 70 6 25 13 56 15 70 3 14 13 66 24 115 10 50 21 104 24 120 7 37
14 72 21 105 3 14 7 36 10 50 3 14 12 59 20 100 8 41 17 86 20 100 2 14 11 57
19 95 9 39 18 81 20 95 3 14 14 70 26 125 11 55 23 111 25 125 3 14 7 34 9 45
2 11 18 90 35 175 17 85 45 218 61 295 16 77 32 154 35 170 2 17 7 39 9 50 2
11 20 101 40 200 41 206 54 251 73 267 17 14 284 10 370 -6 10 -2 38 -7 63
-10 196 -29 357 -92 424 -166 18 -20 41 -59 51 -86 36 -99 54 -134 69 -134 19
0 197 87 279 137 246 148 442 340 545 532 l32 60 -42 25 c-69 40 -152 74 -307
125 -126 42 -333 103 -388 116 -10 2 -83 22 -163 43 -80 22 -158 43 -175 46
-53 11 -68 14 -160 35 -49 11 -101 22 -115 24 -14 3 -63 12 -110 21 -47 8
-103 18 -125 21 -85 12 -111 16 -135 20 -14 3 -50 7 -80 11 -30 3 -66 7 -80
10 -14 2 -62 6 -106 10 l-81 6 -93 -108 c-51 -60 -118 -138 -149 -173 -31 -35
-100 -117 -153 -182 -53 -65 -106 -128 -117 -140 -11 -12 -53 -61 -92 -108
-40 -47 -85 -96 -99 -108 l-27 -22 -29 38 c-16 21 -48 60 -71 87 -23 27 -142
171 -264 319 -346 420 -343 417 -359 401z"/>
</g>
</svg>
